<svg xmlns="http://www.w3.org/2000/svg" width="35" height="35" viewBox="0 0 35 35">
    <path fill="#FF3A3A" fill-rule="evenodd" d="M19.583 17.5a2.086 2.086 0 0 1-2.083 2.083 2.086 2.086 0 0 1-2.083-2.083v-7c0-1.149.934-2.083 2.083-2.083s2.083.934 2.083 2.083v7zm-.607 8.472c-.395.39-.932.611-1.476.611-.544 0-1.08-.22-1.472-.607a2.118 2.118 0 0 1-.611-1.476c0-.544.22-1.08.607-1.472.395-.39.932-.611 1.476-.611.544 0 1.08.22 1.472.607.39.395.611.932.611 1.476 0 .544-.22 1.08-.607 1.472zM17.5 0C7.835 0 0 7.835 0 17.5S7.835 35 17.5 35 35 27.165 35 17.5 27.165 0 17.5 0z"/>
</svg>
