<?xml version="1.0" encoding="utf-8"?>
<!-- Generator: Adobe Illustrator 16.0.0, SVG Export Plug-In . SVG Version: 6.00 Build 0)  -->
<!DOCTYPE svg PUBLIC "-//W3C//DTD SVG 1.1//EN" "http://www.w3.org/Graphics/SVG/1.1/DTD/svg11.dtd">
<svg version="1.1" id="Capa_1" xmlns="http://www.w3.org/2000/svg" xmlns:xlink="http://www.w3.org/1999/xlink" x="0px" y="0px"
	 width="516.188px" height="600px" viewBox="0 0 516.188 600" enable-background="new 0 0 516.188 600" xml:space="preserve">
<path fill="#FFFFFF" d="M263.907,327.514c-64.795-0.076-115.349,44.244-123.286,102.645c-3.199,23.542,0.369,46.05,10.193,67.512
	c14.345,31.334,30.108,61.945,48.026,91.416c0.688,1.128,1.255,2.388,1.583,3.663c0.591,2.287,0.01,4.438-1.738,6.018
	c-1.707,1.544-3.775,1.419-5.868,0.682c-2.145-0.758-3.718-2.33-5.413-3.701c-45.595-36.884-89.878-75.284-132.988-115.041
	c-17.779-16.396-35.332-33.028-52.688-49.872c-2.06-1.999-2.211-3.313-0.806-5.812C70.108,302.052,142.857,181.215,218.063,61.847
	c12.5-19.84,25.201-39.553,37.822-59.316c2.156-3.376,2.21-3.37,4.379,0.004c55.036,85.576,108.511,172.117,160.543,259.553
	c32.103,53.948,63.628,108.23,94.398,162.95c1.232,2.191,1.555,3.522-0.526,5.549c-59.922,58.3-122.356,113.76-187.394,166.294
	c-4.227,3.413-7.435,3.987-9.864,1.909c-2.518-2.151-2.41-5.945,0.259-10.347c17.821-29.383,33.585-59.861,47.816-91.112
	c21.603-47.435,11.736-100.472-25.483-136.603C317.232,338.613,289.543,327.993,263.907,327.514z"/>
</svg>
