<?xml version="1.0" encoding="UTF-8" standalone="no"?>
<svg
   xmlns:dc="http://purl.org/dc/elements/1.1/"
   xmlns:cc="http://creativecommons.org/ns#"
   xmlns:rdf="http://www.w3.org/1999/02/22-rdf-syntax-ns#"
   xmlns:svg="http://www.w3.org/2000/svg"
   xmlns="http://www.w3.org/2000/svg"
   id="svg8"
   version="1.1"
   viewBox="0 0 67.27961 67.280128"
   height="67.280128mm"
   width="67.27961mm">
  <defs
     id="defs2" />
  <metadata
     id="metadata5">
    <rdf:RDF>
      <cc:Work
         rdf:about="">
        <dc:format>image/svg+xml</dc:format>
        <dc:type
           rdf:resource="http://purl.org/dc/dcmitype/StillImage" />
        <dc:title></dc:title>
      </cc:Work>
    </rdf:RDF>
  </metadata>
  <g
     transform="translate(-72.00439,-114.81521)"
     id="layer1">
    <g
       id="g40">
      <path
         style="fill:#018001;fill-opacity:1;stroke:none;stroke-width:1.93473482;stroke-linecap:square;stroke-linejoin:round;stroke-miterlimit:4;stroke-dasharray:none;stroke-opacity:1;paint-order:normal"
         d="m 91.045972,130.09167 v 6.07619 h 7.260094 a 14.756456,14.496048 0 0 0 -7.780843,12.76 14.756456,14.496048 0 0 0 8.860317,13.28074 h -8.686577 v 5.55544 h 29.512717 v -5.55544 h -9.05922 a 14.756456,14.496048 0 0 0 8.88595,-13.28074 14.756456,14.496048 0 0 0 -7.76328,-12.76 h 8.11029 v -6.07619 z m 14.062098,9.89565 a 8.5066636,8.5066636 0 0 1 8.50667,8.50666 8.5066636,8.5066636 0 0 1 -8.50667,8.50666 8.5066636,8.5066636 0 0 1 -8.506659,-8.50666 8.5066636,8.5066636 0 0 1 8.506659,-8.50666 z"
         id="path28" />
      <path
         style="fill:#018001;fill-opacity:1;stroke:none;stroke-width:7.55905533;stroke-linecap:square;stroke-linejoin:round;stroke-miterlimit:4;stroke-dasharray:none;stroke-opacity:1;paint-order:normal"
         d="M 399.28516,433.94727 A 127.14286,127.14286 0 0 0 272.14258,561.0918 127.14286,127.14286 0 0 0 399.28516,688.23438 127.14286,127.14286 0 0 0 526.42773,561.0918 127.14286,127.14286 0 0 0 399.28516,433.94727 Z m 0,27.14453 a 100,100 0 0 1 100,100 100,100 0 0 1 -100,100 100,100 0 0 1 -100,-100 100,100 0 0 1 100,-100 z"
         transform="scale(0.26458333)"
         id="path21" />
    </g>
  </g>
</svg>
