<?xml version="1.0" encoding="utf-8"?>
<!-- Generator: Adobe Illustrator 19.0.0, SVG Export Plug-In . SVG Version: 6.00 Build 0)  -->
<svg version="1.1" id="Capa_1" xmlns="http://www.w3.org/2000/svg" xmlns:xlink="http://www.w3.org/1999/xlink" x="0px" y="0px"
	 width="800px" height="274.9px" viewBox="-114 149.5 800 274.9" style="enable-background:new -114 149.5 800 274.9;"
	 xml:space="preserve">
<style type="text/css">
	.st0{fill:#115C99;}
</style>
<path class="st0" d="M283.5,424.4c-3.1-9.1-5.6-18.8-9.5-27.9c-16.2-37.8-44.2-63.3-82.9-76.9c-18.7-6.6-38-10.3-57.7-12.6
	c-33.8-4-67.7-3.8-101.6-1.9c-4.8,0.3-9.5,0.6-14.3,1c-0.1,0-0.3-0.1,0.1,0.1c1.5-7.4,3.5-14.7,4.3-22c2.9-28.2-5.5-52.7-25.6-72.9
	c-7.6-7.7-16.1-14.2-25.1-20.1c-15.1-9.8-30.1-19.8-46.9-26.3c-12-4.6-24.3-8.4-36.4-12.5c-0.6-0.2-1.2-0.4-1.9-0.9
	c0.7,0,1.4-0.1,2-0.1c89.6,0,179.2,0,268.8,0c5.4,0,7.3,1.7,8.6,7.2c2.3,10.4,5.2,20.5,10.4,29.9c3,5.4,7,9.5,12.9,11.8
	c17.6,6.8,35.6,11.4,54.6,11.3c7-0.1,9.2-1.1,10.8-8c2-8.4,3.5-17.1,4.4-25.7c1.1-10.8,1.4-21.6,2.1-33.1
	c3.8,14.5,7.4,28.6,11.1,42.8c7.8-2.1,15.2-2.1,23.1,0c3.6-14.2,7.1-28.2,10.6-42.3c0.3,0,0.6,0,0.9,0c0,4.2-0.2,8.4,0,12.6
	c0.6,13.8,1.2,27.7,4.6,41.2c3.5,14,6.1,12.7,16,12.2c17.6-0.8,34.5-5,51-11.1c6-2.2,10.1-6.4,13.2-11.9c5-9.1,7.8-18.9,10.2-28.9
	c0.4-1.6,0.8-3.3,1.5-4.8c0.9-2.1,2.7-3.2,5-3.3c1.1-0.1,2.2-0.1,3.3-0.1c90.5,0,181.1,0,271.6,0c1.1,0,2.1,0,3.2,0
	c0,0.2,0.1,0.4,0.1,0.6c-4,1.4-8,2.8-12,4.1c-20.1,6.3-40,13.4-58.6,23.4c-18.9,10.1-36.6,21.9-51,38.1
	c-13.9,15.7-21.7,33.8-21.4,55c0.2,10.6,2.5,20.8,6.2,30.7c0.3,0.9,0.7,1.9,1.1,3.1c-2.2-0.1-4.1-0.2-6-0.3
	c-28.1-2.2-56.2-2.7-84.3-1.1c-22.7,1.2-45.1,4-67.2,9.4c-28.6,7-54.1,19.3-74.5,41.2c-17.4,18.8-28,41-33.9,65.7
	C284.1,422.3,283.7,423.7,283.5,424.4z"/>
</svg>
