<?xml version="1.0" encoding="utf-8"?>
<!-- Generator: Adobe Illustrator 16.0.0, SVG Export Plug-In . SVG Version: 6.00 Build 0)  -->
<!DOCTYPE svg PUBLIC "-//W3C//DTD SVG 1.1 Tiny//EN" "http://www.w3.org/Graphics/SVG/1.1/DTD/svg11-tiny.dtd">
<svg version="1.1" baseProfile="tiny" id="Capa_1" xmlns="http://www.w3.org/2000/svg" xmlns:xlink="http://www.w3.org/1999/xlink"
	 x="0px" y="0px" width="500px" height="500px" viewBox="0 0 500 500" xml:space="preserve">
<path fill="#018001" d="M245.892,144.247c55.575,0,100.622,45.049,100.622,100.621c0,55.576-45.053,100.623-100.622,100.623
	c-55.57,0-100.622-45.047-100.624-100.623C145.272,189.296,190.323,144.247,245.892,144.247z M363.501,27.195
	C329.44,9.809,290.866,0,250,0c-40.866,0-79.439,9.809-113.5,27.195H363.501z M136.499,472.805C170.561,490.191,209.135,500,250,500
	c40.866,0,79.44-9.809,113.502-27.195H136.499z M426.604,73.054v26.017h-95.93c56.535,29.888,91.799,87.858,91.824,150.93
	c-0.092,68.245-41.367,129.94-105.111,157.094h107.156v21.861C471.088,383.554,500,320.158,500,250
	C500,180.877,471.946,118.309,426.604,73.054z M75.454,407.096h102.749c-63.62-27.24-104.768-88.918-104.806-157.094
	c0.063-63.119,35.418-121.096,92.038-150.93H79.556V67.133C30.615,112.769,0,177.804,0,250c0,70.156,28.911,133.551,75.454,178.954
	V407.096z"/>
</svg>
