<?xml version="1.0" encoding="utf-8"?>
<!-- Generator: Adobe Illustrator 16.0.0, SVG Export Plug-In . SVG Version: 6.00 Build 0)  -->
<!DOCTYPE svg PUBLIC "-//W3C//DTD SVG 1.1 Basic//EN" "http://www.w3.org/Graphics/SVG/1.1/DTD/svg11-basic.dtd">
<svg version="1.1" baseProfile="basic" id="Capa_1" xmlns="http://www.w3.org/2000/svg" xmlns:xlink="http://www.w3.org/1999/xlink"
	 x="0px" y="0px" width="500px" height="500px" viewBox="0 0 500 500" xml:space="preserve">
<path fill="#EFC12D" d="M7.044,308.483c-4.546-18.857-6.972-38.541-6.972-58.794c0-116.031,79.052-213.586,186.23-241.78
	C124.578,106.92,64.615,206.986,7.044,308.483z M414.977,167.382c26.858,45.138,53.309,90.513,79.258,136.179
	c3.811-17.353,5.838-35.374,5.838-53.872c0-114.302-76.708-210.686-181.453-240.485C351.283,61.592,383.4,114.319,414.977,167.382z
	 M359.601,402.899c21.628-47.489,11.75-100.589-25.513-136.763c-22.809-22.14-50.53-32.772-76.195-33.253
	c-64.871-0.077-115.483,44.296-123.43,102.764c-3.204,23.571,0.369,46.105,10.205,67.592c14.043,30.675,29.458,60.65,46.907,89.551
	c18.767,4.5,38.351,6.899,58.498,6.899c21.809,0,42.962-2.8,63.128-8.047C330.434,462.988,345.75,433.313,359.601,402.899z
	 M48.156,386.255c-5.714-5.27-11.397-10.572-17.065-15.89c27.839,50.408,72.567,90.181,126.563,111.677
	C120.305,451.096,83.823,419.147,48.156,386.255z M350.455,478.699c47.538-20.867,87.34-56.091,113.909-100.196
	C427.331,412.957,389.365,446.358,350.455,478.699z"/>
</svg>
