<?xml version="1.0" encoding="utf-8"?>
<!-- Generator: Adobe Illustrator 19.0.0, SVG Export Plug-In . SVG Version: 6.00 Build 0)  -->
<svg version="1.1" id="Capa_1" xmlns="http://www.w3.org/2000/svg" xmlns:xlink="http://www.w3.org/1999/xlink" x="0px" y="0px"
	 width="500px" height="500px" viewBox="-229 31 500 500" enable-background="new -229 31 500 500" xml:space="preserve">
<g id="layer1" transform="translate(-72.00439,-114.81521)">
</g>
<path fill="#018001" d="M-88.5,144.5v45.2h54c-35.6,18.7-57.8,55.2-57.8,94.8c0,42.8,25.9,81.6,65.8,98.7h-64.6v41.3h219.3v-41.3
	H60.9c40-17.1,66-55.8,66-98.7c0-39.6-22.2-76-57.7-94.8h60.3v-45.2C129.6,144.5-88.5,144.5-88.5,144.5z M16,218.1
	c34.9,0,63.2,28.3,63.2,63.2l0,0c0,34.9-28.3,63.2-63.2,63.2c-34.9,0-63.2-28.3-63.2-63.2C-47.2,246.4-18.9,218.1,16,218.1L16,218.1
	z M20,31c-138.1,0-250,111.9-250,250c0,0,0,0,0,0c0,138.1,111.9,250,250,250c138.1,0,250-111.9,250-250C270,142.9,158.1,31,20,31
	C20,31,20,31,20,31z M20,84.4c108.6,0,196.6,88,196.6,196.6l0,0c0,108.6-88,196.6-196.6,196.6c-108.6,0-196.6-88-196.6-196.6
	C-176.6,172.4-88.6,84.4,20,84.4L20,84.4z"/>
</svg>
