<?xml version="1.0" encoding="utf-8"?>
<!-- Generator: Adobe Illustrator 16.0.0, SVG Export Plug-In . SVG Version: 6.00 Build 0)  -->
<!DOCTYPE svg PUBLIC "-//W3C//DTD SVG 1.1//EN" "http://www.w3.org/Graphics/SVG/1.1/DTD/svg11.dtd">
<svg version="1.1"
	 id="svg4305" xmlns:svg="http://www.w3.org/2000/svg" xmlns:sodipodi="http://sodipodi.sourceforge.net/DTD/sodipodi-0.dtd" xmlns:inkscape="http://www.inkscape.org/namespaces/inkscape" sodipodi:docname="The Flash Print.svg" inkscape:version="0.91 r13725" xmlns:rdf="http://www.w3.org/1999/02/22-rdf-syntax-ns#" xmlns:cc="http://creativecommons.org/ns#" xmlns:dc="http://purl.org/dc/elements/1.1/"
	 xmlns="http://www.w3.org/2000/svg" xmlns:xlink="http://www.w3.org/1999/xlink" x="0px" y="0px" width="694.201px"
	 height="1000px" viewBox="0 0 694.201 1000" enable-background="new 0 0 694.201 1000" xml:space="preserve">
<sodipodi:namedview  units="px" inkscape:document-units="px" inkscape:current-layer="layer1" inkscape:window-maximized="1" inkscape:window-y="-8" inkscape:window-x="-8" inkscape:window-height="705" inkscape:window-width="1366" inkscape:pageshadow="2" inkscape:pageopacity="0.0" id="base" borderopacity="1.0" pagecolor="#ffffff" bordercolor="#666666" showgrid="false" inkscape:zoom="0.49497475" inkscape:cx="240.50993" inkscape:cy="475.23566">
	</sodipodi:namedview>
<g id="layer1" transform="translate(0,-52.36214)" inkscape:groupmode="layer" inkscape:label="Layer 1">
	<path id="path14" inkscape:connector-curvature="0" fill="#F9EF3A" d="M694.201,552.362c0,191.695-155.411,347.095-347.106,347.095
		S0,744.057,0,552.362c0-191.702,155.399-347.1,347.095-347.1S694.201,360.661,694.201,552.362"/>
	<path id="path16" inkscape:connector-curvature="0" fill="#FFFFFF" d="M680.706,552.362c0,184.241-149.37,333.604-333.611,333.604
		s-333.6-149.363-333.6-333.604c0-184.247,149.358-333.605,333.6-333.605S680.706,368.116,680.706,552.362"/>
	<path id="path18" inkscape:connector-curvature="0" fill="#F9EF3A" d="M621.128,52.362L234.314,485.024l88.822-11.458
		L148.351,719.992l88.821-11.47L7.946,1052.362l495.716-510.025l-100.297,17.192l149.004-220.627l-97.427,11.458L621.128,52.362"/>
</g>
</svg>
