<?xml version="1.0" encoding="utf-8"?>
<!-- Generator: Adobe Illustrator 19.0.0, SVG Export Plug-In . SVG Version: 6.00 Build 0)  -->
<svg version="1.1"
	 id="Layer_1" xmlns:dc="http://purl.org/dc/elements/1.1/" xmlns:cc="http://creativecommons.org/ns#" xmlns:rdf="http://www.w3.org/1999/02/22-rdf-syntax-ns#" xmlns:svg="http://www.w3.org/2000/svg" xmlns:sodipodi="http://sodipodi.sourceforge.net/DTD/sodipodi-0.dtd" xmlns:inkscape="http://www.inkscape.org/namespaces/inkscape" sodipodi:docname="DC_Comics_2016 Black.svg" inkscape:version="0.91 r13725"
	 xmlns="http://www.w3.org/2000/svg" xmlns:xlink="http://www.w3.org/1999/xlink" x="0px" y="0px" viewBox="144 -54.1 130 130"
	 enable-background="new 144 -54.1 130 130" xml:space="preserve">
<sodipodi:namedview  inkscape:cy="450.0705" guidetolerance="10" inkscape:cx="450.07001" gridtolerance="10" showgrid="false" objecttolerance="10" inkscape:zoom="0.26218115" pagecolor="#ffffff" borderopacity="1" bordercolor="#666666" id="namedview4184" inkscape:current-layer="Layer_1" inkscape:window-maximized="0" inkscape:window-y="0" inkscape:window-x="0" inkscape:window-height="480" inkscape:pageopacity="0" inkscape:window-width="701" inkscape:pageshadow="2">
	</sodipodi:namedview>
<path id="path4182" d="M209-54.1c-35.9,0-65,29.1-65,65s29.1,65,65,65c35.9,0,65-29.1,65-65S244.9-54.1,209-54.1z M148.8,10.9
	c0-7,1.2-13.8,3.5-20.3l6.3,4.3v48.8c-1.9-3-3.6-6.1-5-9.4C150.4,26.9,148.8,19,148.8,10.9z M251.6,53.4c-5.5,5.5-12,9.9-19.1,12.9
	c-7.4,3.1-15.3,4.7-23.4,4.7c-8.1,0-16-1.6-23.4-4.7c-7.2-3-13.6-7.4-19.1-12.9c-1.7-1.7-3.4-3.6-4.9-5.5h33.3l13.1-9.5v-51.6
	l-13.1-9.8h-35.7c2.1-3.1,4.6-6.1,7.3-8.8c5.5-5.5,12-9.9,19.1-12.9c7.4-3.1,15.3-4.7,23.4-4.7c8.1,0,16,1.6,23.4,4.7
	c7.2,3,13.6,7.4,19.1,12.9c2.7,2.7,5.1,5.6,7.3,8.8h-9.5l-2.1,4.7l-6.4-4.7h-14.8l-13,9.8v51.6l12.9,9.5h30.5
	C255,49.9,253.3,51.7,251.6,53.4z M171.8-6.7h11.9c3.3,0,6,2.7,6,6V26c0,3.3-2.7,6-6,6h-7.1V-3.3L171.8-6.7z M261.1,41.2V22.8h-16.8
	V32h-7.3c-3.2,0-5.8-2.6-5.8-5.8V-3.3l-4.8-3.5h17.8V3.4h15.4l3.1-19.8c0.6,1.2,1.2,2.5,1.8,3.8c3.1,7.4,4.7,15.3,4.7,23.4
	c0,8.1-1.6,16-4.7,23.4C263.5,36.7,262.3,39,261.1,41.2z"/>
</svg>
