<?xml version="1.0" encoding="utf-8"?>
<!-- Generator: Adobe Illustrator 16.0.0, SVG Export Plug-In . SVG Version: 6.00 Build 0)  -->
<!DOCTYPE svg PUBLIC "-//W3C//DTD SVG 1.1 Basic//EN" "http://www.w3.org/Graphics/SVG/1.1/DTD/svg11-basic.dtd">
<svg version="1.1" baseProfile="basic" id="Capa_1" xmlns="http://www.w3.org/2000/svg" xmlns:xlink="http://www.w3.org/1999/xlink"
	 x="0px" y="0px" width="500px" height="500px" viewBox="0 0 500 500" xml:space="preserve">
<path fill="#FD0000" d="M250.073-0.311c-138.07,0-250,111.929-250,250c0,138.071,111.93,250,250,250c138.071,0,250-111.93,250-250
	C500.073,111.618,388.144-0.311,250.073-0.311z M466.942,277.895c-2.447,17.335-6.569,34.23-12.952,50.543
	c-13.366,34.154-34.003,63.133-61.888,86.86c-26.239,22.329-56.131,37.599-89.563,45.823c-19.05,4.686-38.408,6.959-58.007,6.251
	c-52.881-1.906-99.573-19.97-139.368-55.063c-27.247-24.027-47.179-53.289-59.794-87.471c-6.95-18.83-11.106-38.255-12.673-58.288
	c-2.924-37.386,3.367-73.206,18.823-107.213c20.193-44.431,51.846-78.466,94.731-101.759c20.508-11.138,42.395-18.366,65.41-22.172
	c7.117-1.178,14.279-1.895,21.466-2.43c0.516-0.039,1.164,0.221,1.484-0.477c6.16,0,12.318,0,18.478,0.001
	c2.586,1.021,5.344,0.654,8.01,0.872c13.82,1.135,27.447,3.34,40.87,6.839c32.469,8.463,61.654,23.405,87.411,44.929
	c19.962,16.68,36.495,36.32,49.539,58.906c11.36,19.672,19.447,40.598,24.469,62.742c1.454,6.411,2.463,12.901,3.558,19.377
	c0.305,1.796-0.728,1.596-1.804,1.61c-8.912,0.124-17.822,0.257-26.731,0.386c-9.479,0.138-18.958,0.213-28.435,0.461
	c-1.979,0.051-2.784-0.493-3.263-2.459c-4.639-19.065-11.069-37.483-20.318-54.824c-11.361-21.3-26.235-39.57-46.348-53.214
	c-20.292-13.767-42.914-20.951-67.079-23.738c-13.23-1.525-26.497-1.988-39.778-1.015c-17.811,1.305-34.653,6.27-50.673,14.086
	c-29.173,14.234-52.552,35.105-70.25,62.319c-12.603,19.375-20.725,40.503-23.542,63.545c-3.313,27.093,0.987,53.111,11.86,77.978
	c15.107,34.552,39.402,60.931,72.133,79.404c17.666,9.971,36.634,16.252,56.804,18.794c31.218,3.934,61.246-0.438,89.728-13.77
	c38.567-18.05,65.979-46.807,81.004-87.015c3.647-9.761,6.137-19.828,7.447-30.165c0.28-2.211,1.053-2.861,3.313-2.825
	c18.063,0.274,36.128,0.404,54.192,0.567C466.292,276.304,467.196,276.092,466.942,277.895z M382.503,250.446
	c0.383,72.586-58.879,132.744-132.385,133.122c-73.449,0.376-134.75-59.766-133.688-135.324
	c1.016-72.271,60.145-132.276,135.03-131.282C324.919,117.936,383.045,178.412,382.503,250.446z"/>
</svg>
