<?xml version="1.0" encoding="utf-8"?>
<!-- Generator: Adobe Illustrator 19.0.0, SVG Export Plug-In . SVG Version: 6.00 Build 0)  -->
<svg version="1.1"
	 id="svg4305" inkscape:version="0.91 r13725" sodipodi:docname="Wonder Woman.svg" xmlns:dc="http://purl.org/dc/elements/1.1/" xmlns:sodipodi="http://sodipodi.sourceforge.net/DTD/sodipodi-0.dtd" xmlns:svg="http://www.w3.org/2000/svg" xmlns:rdf="http://www.w3.org/1999/02/22-rdf-syntax-ns#" xmlns:cc="http://creativecommons.org/ns#" xmlns:inkscape="http://www.inkscape.org/namespaces/inkscape"
	 xmlns="http://www.w3.org/2000/svg" xmlns:xlink="http://www.w3.org/1999/xlink" x="0px" y="0px" width="720px" height="304.1px"
	 viewBox="-291 143 720 304.1" style="enable-background:new -291 143 720 304.1;" xml:space="preserve">
<style type="text/css">
	.st0{fill:#DDB819;}
</style>
<sodipodi:namedview  inkscape:pageopacity="0.0" inkscape:window-y="-8" inkscape:window-maximized="1" inkscape:current-layer="layer1" inkscape:document-units="px" inkscape:pageshadow="2" inkscape:window-width="1366" inkscape:window-height="705" inkscape:window-x="-8" showgrid="false" inkscape:cy="155.69483" inkscape:zoom="0.49497475" inkscape:cx="606.06732" id="base" bordercolor="#666666" units="px" borderopacity="1.0" pagecolor="#ffffff">
	</sodipodi:namedview>
<path id="layer1" inkscape:groupmode="layer" inkscape:label="Layer 1" class="st0" d="M-78,233.1h-131.8c0,0-9.4-0.2-18.8-10.1
	c-9.2-9.7-18.6-29.2-18.6-29.2h153.8c0,0,19,0.5,27.4,17.3s16.6,31.3,16.6,31.3S-61.8,233.1-78,233.1 M216,233.1h131.8
	c0,0,9.4-0.2,18.8-10.1c9.2-9.7,18.6-29.2,18.6-29.2H231.4c0,0-19,0.5-27.4,17.3c-8.4,16.8-16.6,31.3-16.6,31.3
	S199.8,233.1,216,233.1 M214.4,143c0,0-32.5-2.2-52.8,36.1l-36.4,66.2L69,143L12.8,245.4l-36.4-66.2C-43.9,140.9-76.3,143-76.3,143
	H-291c0,0,9.4,19.4,18.6,29.2c9.4,9.8,18.8,10.1,18.8,10.1h161.4c0,0,21.6,0,33.5,22.4l46.9,85.4l24.6,44.8l24.6-44.8L69,232.5
	l31.6,57.6l24.6,44.8l24.6-44.8l46.9-85.4c11.8-22.4,33.5-22.4,33.5-22.4h161.4c0,0,9.4-0.2,18.8-10.1c9.2-9.7,18.6-29.2,18.6-29.2
	H214.4 M220.7,244.2c0,0-32.5-2.2-52.8,36.1l-42.4,77.3L69,254.6l-56.5,103l-42.4-77.3c-20.4-38.3-52.8-36.1-52.8-36.1H-201
	c0,0,9.4,19.4,18.6,29.2c9.4,9.8,18.8,10.1,18.8,10.1h65.2c0,0,21.6,0,33.5,22.4l52.8,96.5l24.5,44.8L37,402.3L69,344l32,58.3
	l24.6,44.8l24.5-44.8l52.8-96.5c11.8-22.4,33.5-22.4,33.5-22.4h65.2c0,0,9.4-0.2,18.8-10.1c9.2-9.7,18.6-29.2,18.6-29.2H220.7"/>
</svg>
