<?xml version="1.0" encoding="utf-8"?>
<!-- Generator: Adobe Illustrator 16.0.0, SVG Export Plug-In . SVG Version: 6.00 Build 0)  -->
<!DOCTYPE svg PUBLIC "-//W3C//DTD SVG 1.1//EN" "http://www.w3.org/Graphics/SVG/1.1/DTD/svg11.dtd">
<svg version="1.1" id="Capa_1" xmlns="http://www.w3.org/2000/svg" xmlns:xlink="http://www.w3.org/1999/xlink" x="0px" y="0px"
	 width="500px" height="500px" viewBox="-25 -18.637 500 500" enable-background="new -25 -18.637 500 500" xml:space="preserve">
<g id="layer1" transform="translate(-72.00439,-114.81521)">
	<g id="g40">
		<path id="path28" fill="#018001" d="M188.514,209.705v45.158h53.956c-35.573,18.744-57.786,55.171-57.825,94.827
			c0.024,42.834,25.876,81.584,65.847,98.699h-64.555v41.284h219.326v-41.284h-67.325c40.048-17.059,65.983-55.822,66.04-98.699
			c-0.016-39.627-22.172-76.047-57.693-94.827h60.271v-45.158H188.514z M293.02,283.246c34.915,0,63.218,28.304,63.218,63.218l0,0
			c0,34.915-28.304,63.218-63.218,63.218c-34.914,0-63.218-28.303-63.219-63.218C229.802,311.55,258.106,283.246,293.02,283.246
			L293.02,283.246z"/>
		<path id="path21" fill="#018001" d="M297.004,96.177c-138.07,0-250,111.927-250,250.001c0,0,0,0,0,0.002
			c0,138.07,111.929,249.998,250,249.998c138.071,0,250.001-111.928,250.001-249.998S435.079,96.177,297.006,96.177
			C297.005,96.177,297.005,96.177,297.004,96.177z M297.004,149.552c108.597,0,196.629,88.032,196.629,196.629l0,0
			c0,108.594-88.032,196.629-196.629,196.629c-108.595,0-196.629-88.035-196.629-196.629
			C100.375,237.584,188.408,149.552,297.004,149.552L297.004,149.552z"/>
	</g>
</g>
</svg>
