<?xml version="1.0" encoding="utf-8"?>
<!-- Generator: Adobe Illustrator 16.0.0, SVG Export Plug-In . SVG Version: 6.00 Build 0)  -->
<!DOCTYPE svg PUBLIC "-//W3C//DTD SVG 1.1//EN" "http://www.w3.org/Graphics/SVG/1.1/DTD/svg11.dtd">
<svg version="1.1"
	 id="svg2985" xmlns:dc="http://purl.org/dc/elements/1.1/" xmlns:cc="http://creativecommons.org/ns#" xmlns:rdf="http://www.w3.org/1999/02/22-rdf-syntax-ns#" xmlns:svg="http://www.w3.org/2000/svg" xmlns:sodipodi="http://sodipodi.sourceforge.net/DTD/sodipodi-0.dtd" xmlns:inkscape="http://www.inkscape.org/namespaces/inkscape" sodipodi:docname="Justice League 2017 Movie Logo.svg" inkscape:version="0.48.5 r10040"
	 xmlns="http://www.w3.org/2000/svg" xmlns:xlink="http://www.w3.org/1999/xlink" x="0px" y="0px" width="700px" height="563.287px"
	 viewBox="-100 -80.47 700 563.287" enable-background="new -100 -80.47 700 563.287" xml:space="preserve">
<sodipodi:namedview  fit-margin-left="0" fit-margin-top="0" inkscape:cy="153.08136" inkscape:cx="477.35362" inkscape:zoom="1.0017346" showgrid="false" guidetolerance="10" gridtolerance="10" objecttolerance="10" borderopacity="1" pagecolor="#ffffff" bordercolor="#666666" id="namedview2987" fit-margin-bottom="0" fit-margin-right="0" inkscape:current-layer="svg2985" inkscape:window-maximized="1" inkscape:window-y="-8" inkscape:window-x="-8" inkscape:object-paths="true" inkscape:window-height="706" inkscape:window-width="1366" inkscape:pageshadow="2" inkscape:pageopacity="0">
	</sodipodi:namedview>
<path id="path3053" inkscape:connector-curvature="0" sodipodi:nodetypes="ccccccccccccc" d="M502.503-80.026v273.951H600v-39.479
	h-59.6V65.554h41.378l13.219-39.479h-54.597v-66.621H600v-39.479H502.503z"/>
<path id="path3028" inkscape:connector-curvature="0" d="M375.81,206.783v18.601v228.651v8.542c0,10.292,8.924,18.601,20.004,18.601
	h72.372c11.079,0,19.934-8.309,19.934-18.601v-8.542V225.384v-18.601h-19.934H448.53V440.18c0,1.38-1.193,2.467-2.708,2.467H419.15
	c-1.515,0-2.777-1.087-2.777-2.467V206.783h-20.559H375.81z"/>
<path id="path3090" inkscape:connector-curvature="0" sodipodi:nodetypes="ccccccccccccccccccccc" d="M251.252,227.656
	c1.79-8.682,3.093-17.531,19.959-20.969h72.253c8.541,3.898,16.618,8.463,19.199,20.969v53.307l-36.38,25.769v-60.633h-38.651
	v195.287h37.642v-73.771h-23.242l12.884-39.663h47.748v153.854h-26.021l-5.305-12.127c-7.07,8.439-15.162,12.782-24.253,13.138
	h-35.369c-14.831-1.53-19.527-10.66-20.969-22.232L251.252,227.656z"/>
<path id="rect3080" inkscape:connector-curvature="0" sodipodi:nodetypes="ccccccccccccc" d="M150.941,207.211l-35.07,273.572h36.57
	l5.061-42.2h45.047l4.997,42.2h36.633l-35.068-273.572H150.941z M180.025,258.764l17.716,139.644h-35.494L180.025,258.764z"/>
<path id="path3064" inkscape:connector-curvature="0" sodipodi:nodetypes="ccccccccccccc" d="M15.888,207.227v273.951h91.939v-39.48
	H53.787v-88.892h41.376l15.363-39.479h-56.74v-66.622h59.599v-39.479H15.888z"/>
<path id="rect3074" inkscape:connector-curvature="0" sodipodi:nodetypes="cccccccc" d="M-81.209,207.464v233.714v40.324H6.354
	v-40.324h-48.59V207.464H-81.209z"/>
<path id="path3066" inkscape:connector-curvature="0" d="M406.526-80.47c-11.484,1.151-16.833,8.028-18.222,18.601v74.404
	l4.808,14.868h27.144L395.96,45.308l11.071,27.838l-18.728-12.843v115.021c1.389,10.573,6.737,17.45,18.222,18.601h65.926
	c10.093,0,18.157-8.308,18.157-18.601v-60.737l-36.063-28.217v66.558c0,1.379-1.087,2.467-2.467,2.467h-24.295
	c-1.381,0-2.53-1.087-2.53-2.467V-26.881v-12.59c0-1.379,1.149-2.468,2.53-2.468h24.295c1.38,0,2.467,1.088,2.467,2.468v12.59
	v46.059l36.063-26.382v-54.665c0-10.292-8.064-18.601-18.157-18.601H406.526z"/>
<path id="rect3050" inkscape:connector-curvature="0" d="M338.765-80.026v273.951h37.897V59.67l-18.601,12.78l9.996-28.217
	l-24.295-17.525h29.356l3.543-11.578v-95.155H338.765z"/>
<path id="rect3038" inkscape:connector-curvature="0" d="M239.117-79.773v37.897h23.789c1.38,0,2.468,1.088,2.468,2.467v233.333
	h37.139V-39.409c0-1.379,1.15-2.467,2.53-2.467h25.181v-37.897H239.117z"/>
<path id="path3002" inkscape:connector-curvature="0" sodipodi:nodetypes="ssccccccccssssccccccccsss" d="M149.91-80.47
	c-10.151,0-21.196,11.852-21.196,22.144v88.249c1.445,4.406,3.912,8.816,9.617,13.223l55.044,41.062v71.125h-26.41v-42.01
	L134.408,88.14h-5.694v83.957c0,10.293,11.044,21.828,21.196,21.828h60.864c10.151,0,20.814-11.535,20.814-21.828V66.376
	c-1.443-4.406-3.91-8.816-9.617-13.223l-55.043-41.125V-41.18h27.902V4.563l5.314,0.38l31.444-24.295v-38.974
	c0-10.292-10.663-22.144-20.814-22.144H149.91z"/>
<path id="path3005" inkscape:connector-curvature="0" sodipodi:nodetypes="cccscccsssscc" d="M14.959-80.47v255.793
	c1.389,10.573,6.738,17.45,18.221,18.601h65.926c10.092,0,18.158-8.308,18.158-18.601V-80.47H81.2v233.397
	c0,1.379-1.088,2.467-2.468,2.467H54.438c-1.379,0-2.531-1.087-2.531-2.467V-80.47H14.959z"/>
<g id="g3096" transform="matrix(1.4461314,0,0,1.4461314,-223.51761,-36.243668)">
	<path id="rect2995" inkscape:connector-curvature="0" sodipodi:nodetypes="cccssssscccsssscccccc" d="M97.794-30.582l9.144,27.125
		h23.231c0.678,0,1.225,0.548,1.225,1.225v133c0,0.677-0.547,1.225-1.225,1.225h-17.325c-0.678,0-1.225-0.548-1.225-1.225V85.574
		l-26.206,17.981v36.837v5.906c0,7.118,5.725,12.863,12.819,12.863h46.331c7.093,0,12.775-5.745,12.775-12.863v-5.906V-17.72
		v-12.862h-12.775H98.231H97.794z"/>
</g>
<path id="path3053_1_" inkscape:connector-curvature="0" sodipodi:nodetypes="ccccccccccccc" d="M502.503,207.005v273.951H600
	v-39.479h-59.6v-88.892h41.378l13.219-39.479h-54.597v-66.621H600v-39.479H502.503z"/>
</svg>
