<?xml version="1.0" encoding="utf-8"?>
<!-- Generator: Adobe Illustrator 16.0.0, SVG Export Plug-In . SVG Version: 6.00 Build 0)  -->
<!DOCTYPE svg PUBLIC "-//W3C//DTD SVG 1.1//EN" "http://www.w3.org/Graphics/SVG/1.1/DTD/svg11.dtd">
<svg version="1.1"
	 id="svg4305" xmlns:svg="http://www.w3.org/2000/svg" xmlns:sodipodi="http://sodipodi.sourceforge.net/DTD/sodipodi-0.dtd" xmlns:inkscape="http://www.inkscape.org/namespaces/inkscape" sodipodi:docname="Wonder Woman.svg" inkscape:version="0.91 r13725" xmlns:rdf="http://www.w3.org/1999/02/22-rdf-syntax-ns#" xmlns:cc="http://creativecommons.org/ns#" xmlns:dc="http://purl.org/dc/elements/1.1/"
	 xmlns="http://www.w3.org/2000/svg" xmlns:xlink="http://www.w3.org/1999/xlink" x="0px" y="0px" width="1000px"
	 height="465.305px" viewBox="0 0 1000 465.305" enable-background="new 0 0 1000 465.305" xml:space="preserve">
<sodipodi:namedview  units="px" inkscape:document-units="px" inkscape:current-layer="layer1" inkscape:window-maximized="1" inkscape:window-y="-8" inkscape:window-x="-8" inkscape:window-height="705" inkscape:window-width="1366" inkscape:pageshadow="2" inkscape:pageopacity="0.0" id="base" borderopacity="1.0" pagecolor="#ffffff" bordercolor="#666666" showgrid="false" inkscape:zoom="0.49497475" inkscape:cx="606.06732" inkscape:cy="155.69483">
	</sodipodi:namedview>
<g id="layer1" transform="translate(0,-587.05614)" inkscape:groupmode="layer" inkscape:label="Layer 1">
	<path id="path48" inkscape:connector-curvature="0" fill="none" d="M975.734,603.361H692.611c-0.358-0.013-0.907-0.023-1.634-0.023
		c-8.736,0-53.758,2.692-81.987,55.732l-34.738,63.247l-60.892-110.92l-13.364-24.342l-13.373,24.342l-60.899,110.92l-34.633-63.07
		c-28.339-53.218-73.36-55.91-82.104-55.91c-0.702,0-1.252,0.01-1.619,0.023H0l10.517,21.857
		c1.375,2.86,13.836,28.345,27.353,42.466c9.569,10.008,19.447,14.44,26.467,16.415l4.041,8.392
		c1.375,2.86,13.847,28.34,27.353,42.47c11.613,12.146,23.684,16.092,30.518,17.394l3.145,6.523
		c1.38,2.847,13.847,28.331,27.357,42.453c16.312,17.062,33.575,17.996,35.891,18.04h85.934c0.815,0.023,19.998,0.797,31.015,21.787
		l69.822,127.571l32.435,59.227l13.359,24.389l13.373-24.377l32.48-59.19l28.924-52.69l28.938,52.69l32.48,59.19l13.373,24.396
		l13.359-24.408l32.423-59.227l69.956-127.806c10.894-20.755,30.076-21.53,30.691-21.552h86.53
		c1.922-0.044,19.183-0.979,35.501-18.041c13.506-14.121,25.971-39.605,27.353-42.453l3.126-6.5
		c6.66-1.267,18.829-5.172,30.541-17.416c13.497-14.13,25.963-39.609,27.335-42.47l4.03-8.36c6.947-1.966,16.871-6.39,26.488-16.446
		c13.507-14.121,25.972-39.605,27.354-42.466L1000,603.361H975.734"/>
	<path id="path50" inkscape:connector-curvature="0" fill="#DDB819" d="M305.784,737.742H131.625c0,0-12.443-0.31-24.879-13.32
		c-12.223-12.788-24.639-38.542-24.639-38.542h203.342c0,0,25.108,0.616,36.228,22.845c11.127,22.234,21.928,41.373,21.928,41.373
		S327.087,737.742,305.784,737.742"/>
	<path id="path52" inkscape:connector-curvature="0" fill="#DDB819" d="M694.188,737.742h174.168c0,0,12.434-0.31,24.868-13.32
		c12.23-12.788,24.643-38.542,24.643-38.542H714.526c0,0-25.107,0.616-36.23,22.845c-11.124,22.234-21.929,41.373-21.929,41.373
		S672.893,737.742,694.188,737.742"/>
	<path id="path54" inkscape:connector-curvature="0" fill="#DDB819" d="M692.186,618.603c0,0-42.909-2.776-69.845,47.811
		l-48.104,87.567l-74.246-135.258L425.734,753.98l-48.099-87.567c-26.939-50.587-69.85-47.811-69.85-47.811H24.251
		c0,0,12.412,25.758,24.642,38.547c12.436,13.019,24.872,13.324,24.872,13.324h213.279c0,0,28.613,0,44.191,29.708l62.041,112.927
		l32.481,59.125l32.458-59.138l41.775-76.089l41.766,76.089l32.463,59.138l32.48-59.125l62.029-112.927
		c15.587-29.708,44.198-29.708,44.198-29.708h213.285c0,0,12.431-0.305,24.873-13.324c12.227-12.789,24.635-38.547,24.635-38.547
		H692.186"/>
	<path id="path56" inkscape:connector-curvature="0" fill="#DDB819" d="M700.467,752.262c0,0-42.914-2.781-69.85,47.802
		l-55.919,102.153l-74.707-136.09l-74.718,136.09l-55.918-102.153c-26.931-50.583-69.846-47.802-69.846-47.802H143.121
		c0,0,12.417,25.75,24.64,38.538c12.442,13.01,24.879,13.329,24.879,13.329h86.135c0,0,28.604,0,44.185,29.704l69.833,127.57
		l32.422,59.228l32.488-59.191l42.289-77.033l42.279,77.033l32.489,59.191l32.423-59.228l69.832-127.57
		c15.583-29.704,44.188-29.704,44.188-29.704h86.137c0,0,12.426-0.319,24.873-13.329c12.226-12.789,24.638-38.538,24.638-38.538
		H700.467"/>
</g>
</svg>
