<?xml version="1.0" encoding="utf-8"?>
<!-- Generator: Adobe Illustrator 16.0.0, SVG Export Plug-In . SVG Version: 6.00 Build 0)  -->
<!DOCTYPE svg PUBLIC "-//W3C//DTD SVG 1.1//EN" "http://www.w3.org/Graphics/SVG/1.1/DTD/svg11.dtd">
<svg version="1.1" id="Capa_1" xmlns="http://www.w3.org/2000/svg" xmlns:xlink="http://www.w3.org/1999/xlink" x="0px" y="0px"
	 width="500px" height="500px" viewBox="-25 -18.637 500 500" enable-background="new -25 -18.637 500 500" xml:space="preserve">
<g>
	<path fill="#0D420E" d="M-24.999,239.447c0-5.375,0-10.752,0-16.127c0.146-1.76,0.293-3.568,0.488-5.328
		c0.537-6.305,0.879-12.656,1.71-18.962c3.469-27.318,11.531-53.172,23.647-77.901c19.593-40.026,47.931-72.281,84.77-97.06
		c35.96-24.191,75.536-38.414,118.873-41.834c20.471-1.612,40.846-1.075,61.073,2.346C308.46-8.187,346.96,9.016,380.82,36.238
		c36.79,29.47,63.565,66.271,79.346,110.744c15,42.274,18.86,85.575,10.505,129.706c-10.993,57.914-38.94,106.297-83.646,144.709
		c-39.575,34.016-85.698,53.174-137.586,58.551c-5.033,0.537-10.016,0.928-15.049,1.416c-6.986,0-14.022,0-21.008,0
		c-0.636-0.146-1.222-0.342-1.857-0.342c-37.181-2.004-72.115-11.924-104.801-29.666c-40.406-21.943-72.701-52.584-96.349-92.172
		c-20.13-33.625-31.465-70.033-34.494-109.082C-24.413,246.533-24.706,243.014-24.999,239.447z M372.269,89.655
		c-15.097-16.03-32.197-28.786-51.301-38.804c-49.494-26-101.333-31.328-154.784-15.347c-54.331,16.226-94.736,50.29-121.707,100.09
		c-15.732,29.03-23.5,60.26-24.331,93.345C26.546,227.865,350.576,99.576,372.269,89.655z M371.976,372.967
		C254.617,326.391,137.944,279.131,20.39,233.193c0.879,74.186,43.289,152.234,125.713,186.738
		C229.847,454.973,320.625,429.07,371.976,372.967z M374.517,92.685c-0.831,1.662-1.319,2.59-1.809,3.519
		c-2.589,5.327-5.179,10.703-7.768,16.03c-18.957,38.854-37.915,77.658-56.92,116.462c-0.93,1.857-0.978,3.322-0.05,5.23
		c17.198,35.236,34.348,70.521,51.448,105.807c4.642,9.58,9.039,19.305,13.681,28.883c0.293,0.588,1.71,1.125,2.394,0.93
		c0.831-0.195,1.466-1.174,2.102-1.906c12.604-14.418,23.109-30.252,31.415-47.504c10.847-22.578,17.59-46.379,19.788-71.354
		c2.053-23.605-0.195-46.818-6.303-69.691c-8.062-30.301-21.742-57.621-43.093-80.834C377.839,96.497,376.324,94.737,374.517,92.685
		z M332.107,129.485c-0.146-0.146-0.293-0.342-0.439-0.489c-85.307,33.966-170.613,67.932-255.92,101.898c0,0.342,0,0.686,0,1.025
		c85.258,33.871,170.565,67.689,256.262,101.705c-0.342-0.93-0.391-1.271-0.537-1.564c-16.123-32.891-32.246-65.781-48.321-98.721
		c-0.732-1.516-1.661-1.859-3.225-1.908c-21.497-0.047-42.995-0.146-64.493-0.195c-8.355-0.049-16.709,0-25.113,0
		c-0.049,0.244-0.049,0.439-0.098,0.684c0.635,0.195,1.319,0.49,1.955,0.637c6.693,1.662,13.436,3.322,20.179,4.936
		c17.296,4.057,34.543,8.064,51.839,11.975c2.932,0.684,4.69,1.955,6.01,4.838c4.202,9.188,8.844,18.182,13.24,27.221
		c1.809,3.666,3.421,7.43,5.18,11.143c-0.195,0.246-0.391,0.539-0.636,0.783c-51.546-20.525-103.14-41.053-154.686-61.58
		c0.049-0.342,0.098-0.684,0.098-1.025c51.985-20.77,104.019-41.59,156.493-62.556c-1.563,14.515-3.028,28.394-4.544,42.519
		c2.199,0,3.908,0.146,5.569-0.049c0.832-0.098,2.004-0.734,2.346-1.467c12.02-24.387,23.94-48.823,35.862-73.258
		C330.202,133.884,331.13,131.685,332.107,129.485z"/>
</g>
</svg>
