<?xml version="1.0" encoding="utf-8"?>
<!-- Generator: Adobe Illustrator 16.0.0, SVG Export Plug-In . SVG Version: 6.00 Build 0)  -->
<!DOCTYPE svg PUBLIC "-//W3C//DTD SVG 1.1//EN" "http://www.w3.org/Graphics/SVG/1.1/DTD/svg11.dtd">
<svg version="1.1" id="Capa_1" xmlns="http://www.w3.org/2000/svg" xmlns:xlink="http://www.w3.org/1999/xlink" x="0px" y="0px"
	 width="500px" height="372.744px" viewBox="-25 -18.637 500 372.744" enable-background="new -25 -18.637 500 372.744"
	 xml:space="preserve">
<path fill="#C80000" d="M320.895,93.325c-49.295-15.239-142.442,8.967-196.247-28.665c0,0-31.361-20.63,29.545-51.057
	c0,0,15.084-6.532,37.27-9.331c11.299-1.399,24.518-1.866,38.514,0c13.424,1.763,27.575,5.65,41.572,12.907
	c0,0,33.121,18.816,38.512,51.99h77.079l3.629-56.034l52.871,53.442l-65.261,75.472C372.108,128.884,356.091,104.263,320.895,93.325
	L320.895,93.325z M302.959,204.46c-17.001,4.509-43.904,9.848-83.351,6.272c0,0-3.576-23.274-51.057-23.274
	c-27.576,0-39.706,7.827-45.097,14.41l-49.657-57.331c12.544,6.014,34.417,12.026,72.361,13.323
	c80.656,2.695,141.562,7.153,162.191,16.121C328.929,182.948,319.961,199.95,302.959,204.46L302.959,204.46z M225,319.066
	l-64.328-74.229c24.518,6.17,70.132,12.959,128.292,0.364L225,319.066z M6.308,66.63L67.941,4.325h39.964
	c-64.43,31.256-65.364,83.662-61.632,108.438L6.308,66.63z M338.778-0.703l-3.267,5.028L323.59,22.57L305.344,4.325l-5.028-5.028
	H338.778z M391.65-18.637H58.351L-25,65.595l250,288.512L475,65.595L391.65-18.637"/>
</svg>
