<?xml version="1.0" encoding="UTF-8" standalone="no"?>
<!-- Created with Inkscape (http://www.inkscape.org/) -->

<svg
   xmlns:dc="http://purl.org/dc/elements/1.1/"
   xmlns:cc="http://creativecommons.org/ns#"
   xmlns:rdf="http://www.w3.org/1999/02/22-rdf-syntax-ns#"
   xmlns:svg="http://www.w3.org/2000/svg"
   xmlns="http://www.w3.org/2000/svg"
   xmlns:sodipodi="http://sodipodi.sourceforge.net/DTD/sodipodi-0.dtd"
   xmlns:inkscape="http://www.inkscape.org/namespaces/inkscape"
   width="1000"
   height="465.306"
   viewBox="0 0 1000 465.306"
   id="svg4305"
   version="1.1"
   inkscape:version="0.91 r13725"
   sodipodi:docname="Wonder Woman.svg">
  <defs
     id="defs4307" />
  <sodipodi:namedview
     id="base"
     pagecolor="#ffffff"
     bordercolor="#666666"
     borderopacity="1.0"
     inkscape:pageopacity="0.0"
     inkscape:pageshadow="2"
     inkscape:zoom="0.49497475"
     inkscape:cx="606.06732"
     inkscape:cy="155.69483"
     inkscape:document-units="px"
     inkscape:current-layer="layer1"
     showgrid="false"
     units="px"
     inkscape:window-width="1366"
     inkscape:window-height="705"
     inkscape:window-x="-8"
     inkscape:window-y="-8"
     inkscape:window-maximized="1" />
  <metadata
     id="metadata4310">
    <rdf:RDF>
      <cc:Work
         rdf:about="">
        <dc:format>image/svg+xml</dc:format>
        <dc:type
           rdf:resource="http://purl.org/dc/dcmitype/StillImage" />
        <dc:title></dc:title>
      </cc:Work>
    </rdf:RDF>
  </metadata>
  <g
     inkscape:label="Layer 1"
     inkscape:groupmode="layer"
     id="layer1"
     transform="translate(0,-587.05614)">
    <path
       id="path48"
       style="fill:#000000;fill-opacity:1;fill-rule:nonzero;stroke:none"
       d="m 975.73396,603.36131 -283.12282,0 c -0.35868,-0.0133 -0.90766,-0.0232 -1.63399,-0.0232 -8.73652,0 -53.75751,2.69232 -81.98697,55.73268 l -34.73883,63.24726 -60.8916,-110.9207 -13.36415,-24.34156 -13.37312,24.34156 -60.89924,110.9207 -34.63322,-63.07012 c -28.33839,-53.2175 -73.36005,-55.90982 -82.10387,-55.90982 -0.70242,0 -1.25239,0.01 -1.61904,0.0232 l -307.36711,0 10.516833,21.85734 c 1.375173,2.86057 13.836252,28.3446 27.352481,42.46597 9.568988,10.0076 19.447769,14.44016 26.466806,16.41512 l 4.040698,8.39136 c 1.375372,2.86057 13.846813,28.34014 27.35268,42.47038 11.613262,12.1464 23.683512,16.09189 30.517932,17.39376 l 3.14443,6.52267 c 1.38025,2.84729 13.84681,28.33131 27.35753,42.45268 16.31154,17.06165 33.57468,17.99598 35.89059,18.04028 l 85.93401,0 c 0.81477,0.0233 19.99748,0.79707 31.01428,21.78649 l 69.82273,127.5705 32.43464,59.22644 13.35851,24.3902 13.37313,-24.377 32.48047,-59.19115 28.92457,-52.69044 28.93784,52.69044 32.48048,59.19115 13.37312,24.3946 13.35984,-24.4078 32.42269,-59.22644 69.95591,-127.8052 c 10.89324,-20.75472 30.07599,-21.52967 30.69172,-21.55179 l 86.53025,0 c 1.92193,-0.0442 19.18275,-0.97863 35.5007,-18.04028 13.50563,-14.12137 25.9711,-39.60539 27.35268,-42.45268 l 3.12616,-6.50052 c 6.65983,-1.26647 18.82838,-5.1721 30.54095,-17.41591 13.497,-14.13024 25.96213,-39.60981 27.33508,-42.47038 l 4.0295,-8.36037 c 6.94777,-1.9661 16.87125,-6.38979 26.48919,-16.44611 13.50597,-14.12137 25.9711,-39.6054 27.35268,-42.46597 L 1000,603.36131 l -24.26604,0"
       inkscape:connector-curvature="0" />
    <path
       id="path50"
       style="fill:#ffffff;fill-opacity:1;fill-rule:nonzero;stroke:none"
       d="m 305.7846,737.74235 -174.15962,0 c 0,0 -12.44355,-0.30986 -24.87869,-13.31989 -12.222588,-12.78847 -24.638666,-38.5426 -24.638666,-38.5426 l 203.341966,0 c 0,0 25.10877,0.6155 36.22786,22.84484 11.12705,22.23371 21.92797,41.37219 21.92797,41.37219 0,0 -16.51755,-12.35454 -37.82082,-12.35454"
       inkscape:connector-curvature="0" />
    <path
       id="path52"
       style="fill:#ffffff;fill-opacity:1;fill-rule:nonzero;stroke:none"
       d="m 694.18767,737.74235 174.16809,0 c 0,0 12.43425,-0.30986 24.86849,-13.31989 12.23033,-12.78847 24.64265,-38.5426 24.64265,-38.5426 l -203.34074,0 c 0,0 -25.10761,0.6155 -36.23101,22.84484 -11.12373,22.23371 -21.9283,41.37219 -21.9283,41.37219 0,0 16.52585,-12.35454 37.82082,-12.35454"
       inkscape:connector-curvature="0" />
    <path
       id="path54"
       style="fill:#ffffff;fill-opacity:1;fill-rule:nonzero;stroke:none"
       d="m 692.18604,618.60299 c 0,0 -42.90877,-2.77645 -69.84498,47.81074 l -48.10299,87.56663 -74.24679,-135.25781 -74.25741,135.25781 -48.099,-87.56663 c -26.9392,-50.58719 -69.8493,-47.81074 -69.8493,-47.81074 l -283.534543,0 c 0,0 12.412657,25.75855 24.641922,38.54706 12.435141,13.01876 24.872041,13.3243 24.872041,13.3243 l 213.2796,0 c 0,0 28.61334,0 44.19102,29.70844 l 62.04103,112.92665 32.48114,59.12467 32.45823,-59.13795 41.77527,-76.08887 41.76631,76.08887 32.46254,59.13795 32.48048,-59.12467 62.02974,-112.92665 c 15.58698,-29.70844 44.19736,-29.70844 44.19736,-29.70844 l 213.28614,0 c 0,0 12.42993,-0.30554 24.87281,-13.3243 12.22634,-12.78851 24.63402,-38.54706 24.63402,-38.54706 l -283.53464,0"
       inkscape:connector-curvature="0" />
    <path
       id="path56"
       style="fill:#ffffff;fill-opacity:1;fill-rule:nonzero;stroke:none"
       d="m 700.4669,752.26225 c 0,0 -42.91342,-2.78087 -69.84963,47.80186 L 574.69837,902.21694 499.99128,766.1268 425.27356,902.21694 369.356,800.06411 c -26.93024,-50.58273 -69.84532,-47.80186 -69.84532,-47.80186 l -156.38981,0 c 0,0 12.41787,25.74968 24.64046,38.53819 12.44175,13.00989 24.87865,13.32872 24.87865,13.32872 l 86.13461,0 c 0,0 28.60447,0 44.18447,29.70402 l 69.83336,127.5703 32.42236,59.22672 32.48745,-59.19118 42.28905,-77.03221 42.27975,77.03221 32.48945,59.19118 32.42302,-59.22672 69.8317,-127.5703 c 15.58266,-29.70402 44.18872,-29.70402 44.18872,-29.70402 l 86.13637,0 c 0,0 12.42528,-0.31883 24.8728,-13.32872 12.22601,-12.78851 24.63834,-38.53819 24.63834,-38.53819 l -156.38453,0"
       inkscape:connector-curvature="0" />
  </g>
</svg>
