<?xml version="1.0" encoding="utf-8"?>
<!-- Generator: Adobe Illustrator 16.0.0, SVG Export Plug-In . SVG Version: 6.00 Build 0)  -->
<!DOCTYPE svg PUBLIC "-//W3C//DTD SVG 1.1//EN" "http://www.w3.org/Graphics/SVG/1.1/DTD/svg11.dtd">
<svg version="1.1" id="Capa_1" xmlns="http://www.w3.org/2000/svg" xmlns:xlink="http://www.w3.org/1999/xlink" x="0px" y="0px"
	 width="777.525px" height="271.004px" viewBox="-7.762 0 777.525 271.004" enable-background="new -7.762 0 777.525 271.004"
	 xml:space="preserve">
<path fill="#FFFFFF" d="M378.617,271.004c-2.978-8.813-5.465-18.23-9.271-27.086c-15.789-36.727-42.944-61.48-80.558-74.775
	c-18.161-6.42-36.98-9.976-56.065-12.233c-32.857-3.888-65.795-3.659-98.758-1.845c-4.644,0.256-9.28,0.623-13.92,0.925
	c-0.134,0.009-0.276-0.116,0.125,0.065c1.431-7.229,3.397-14.258,4.138-21.414c2.837-27.448-5.308-51.207-24.858-70.885
	c-7.397-7.446-15.654-13.824-24.428-19.54c-14.632-9.536-29.217-19.246-45.6-25.568C17.797,14.162,5.853,10.497-5.951,6.473
	c-0.596-0.204-1.213-0.345-1.812-0.847c0.66-0.043,1.319-0.125,1.98-0.125c87.096-0.008,174.191-0.013,261.287-0.006
	c5.24,0,7.128,1.609,8.313,7.025c2.204,10.075,5.082,19.906,10.075,29.014c2.884,5.259,6.84,9.249,12.547,11.445
	c17.104,6.586,34.624,11.102,53.108,10.954c6.837-0.055,8.902-1.078,10.523-7.771c1.989-8.209,3.444-16.608,4.321-25.01
	c1.091-10.455,1.357-20.997,2.018-32.151c3.67,14.141,7.203,27.756,10.804,41.625c7.554-2.003,14.812-2.035,22.462,0.009
	c3.468-13.816,6.889-27.443,10.311-41.071c0.29,0.012,0.579,0.025,0.868,0.037c0,4.085-0.147,8.177,0.027,12.255
	c0.578,13.455,1.178,26.938,4.478,40.065c3.415,13.581,5.897,12.354,15.537,11.896c17.078-0.811,33.52-4.842,49.522-10.781
	c5.832-2.165,9.855-6.195,12.786-11.52c4.852-8.807,7.623-18.339,9.895-28.056c0.368-1.578,0.81-3.167,1.465-4.641
	c0.897-2.02,2.609-3.077,4.828-3.225c1.057-0.071,2.119-0.103,3.18-0.103c87.993-0.005,175.986-0.004,263.98-0.004
	c1.03,0,2.059,0,3.089,0c0.04,0.193,0.081,0.387,0.121,0.58c-3.886,1.329-7.743,2.751-11.663,3.972
	c-19.574,6.095-38.839,12.978-56.952,22.708c-18.356,9.862-35.598,21.283-49.552,37.023c-13.496,15.222-21.137,32.814-20.792,53.431
	c0.172,10.298,2.428,20.215,6.051,29.835c0.34,0.901,0.66,1.812,1.098,3.014c-2.152-0.112-4.013-0.173-5.864-0.315
	c-27.293-2.119-54.619-2.582-81.948-1.114c-22.026,1.181-43.858,3.907-65.349,9.141c-27.783,6.77-52.62,18.733-72.386,40
	c-16.938,18.229-27.206,39.866-32.948,63.854C379.141,268.938,378.803,270.259,378.617,271.004z"/>
</svg>
