<?xml version="1.0" encoding="utf-8"?>
<!-- Generator: Adobe Illustrator 16.0.0, SVG Export Plug-In . SVG Version: 6.00 Build 0)  -->
<!DOCTYPE svg PUBLIC "-//W3C//DTD SVG 1.1//EN" "http://www.w3.org/Graphics/SVG/1.1/DTD/svg11.dtd">
<svg version="1.1" id="Modo_de_aislamiento" xmlns="http://www.w3.org/2000/svg" xmlns:xlink="http://www.w3.org/1999/xlink"
	 x="0px" y="0px" width="951.466px" height="401.909px" viewBox="24.251 31.667 951.466 401.909"
	 enable-background="new 24.251 31.667 951.466 401.909" xml:space="preserve">
<path id="path50" inkscape:connector-curvature="0" fill="#FFFFFF" d="M305.782,150.686H131.625c0,0-12.443-0.31-24.879-13.32
	c-12.225-12.788-24.641-38.542-24.641-38.542h203.344c0,0,25.106,0.616,36.228,22.845c11.127,22.234,21.928,41.373,21.928,41.373
	S327.087,150.686,305.782,150.686"/>
<path id="path52" inkscape:connector-curvature="0" fill="#FFFFFF" d="M694.188,150.686h174.168c0,0,12.434-0.31,24.868-13.32
	c12.229-12.788,24.643-38.542,24.643-38.542H714.526c0,0-25.105,0.616-36.229,22.845c-11.124,22.234-21.931,41.373-21.931,41.373
	S672.893,150.686,694.188,150.686"/>
<path id="path54" inkscape:connector-curvature="0" fill="#FFFFFF" d="M692.186,31.547c0,0-42.909-2.776-69.845,47.811
	l-48.104,87.567L499.99,31.667l-74.256,135.257l-48.099-87.567c-26.939-50.587-69.852-47.811-69.852-47.811H24.251
	c0,0,12.412,25.758,24.642,38.547C61.33,83.112,73.765,83.417,73.765,83.417h213.279c0,0,28.611,0,44.189,29.708l62.041,112.927
	l32.481,59.125l32.458-59.138l41.773-76.089l41.768,76.089l32.463,59.138l32.479-59.125l62.029-112.927
	c15.587-29.708,44.198-29.708,44.198-29.708h213.285c0,0,12.431-0.305,24.873-13.324c12.227-12.789,24.635-38.547,24.635-38.547
	L692.186,31.547"/>
<path id="path56" inkscape:connector-curvature="0" fill="#FFFFFF" d="M700.467,165.206c0,0-42.914-2.781-69.852,47.802
	l-55.919,102.153l-74.707-136.09l-74.718,136.09l-55.918-102.153c-26.931-50.583-69.846-47.802-69.846-47.802H143.121
	c0,0,12.417,25.75,24.64,38.538c12.442,13.01,24.879,13.329,24.879,13.329h86.135c0,0,28.604,0,44.187,29.705l69.833,127.569
	l32.422,59.229l32.486-59.191l42.289-77.031l42.279,77.031l32.489,59.191l32.423-59.229l69.832-127.569
	c15.583-29.705,44.188-29.705,44.188-29.705h86.139c0,0,12.426-0.319,24.873-13.329c12.226-12.789,24.638-38.538,24.638-38.538
	H700.467"/>
</svg>
